Coordinates
version=1
nRows=7
nColumns=33
inDegrees=yes

Units are S.I. units (second, meters, Newtons, ...)
Angles are in degrees.

endheader
time	ground_thorax_rot_x	ground_thorax_rot_y	ground_thorax_rot_z	ground_thorax_tx	ground_thorax_ty	ground_thorax_tz	clav_prot_r	clav_elev_r	scapula_abduction_r	scapula_elevation_r	scapula_upward_rot_r	scapula_winging_r	shoulder_elv_r	plane_of_elev_r	axial_rot_r	elbow_flexion_r	pro_sup_r	wrist_flex_r	wrist_dev_r	clav_prot_l	clav_elev_l	scapula_abduction_l	scapula_elevation_l	scapula_upward_rot_l	scapula_winging_l	shoulder_elv_l	plane_of_elev_l	axial_rot_l	elbow_flexion_l	pro_sup_l	wrist_flex_l	wrist_dev_l
      4.45000000	    -40.24358104	     -0.59737539	     -4.97223519	   -214.69836206	    868.92223315	     -5.44574648	     13.19091473	    -45.00000000	     40.64105120	    -45.00000000	    -45.00000000	   1346.21729696	   -466.91319113	    149.47768239	    179.99999979	      5.71064498	     60.63088192	     27.65764077	     15.45433858	     15.20480379	     39.10402503	    -37.71164206	    -45.00000000	    -45.00000000	   -997.83247847	  -1536.31491228	    136.01920181	   -179.99999979	   1091.56879161	   -307.42718063	      7.61094730	    -23.98443246
      4.46000000	    -40.26601542	     -0.33016114	     -5.09432277	   -215.45910365	    870.86734640	     -5.54542742	     13.19417391	    -45.00000000	     40.56610621	    -45.00000000	    -45.00000000	   1346.26358284	   -466.80893216	    149.56203536	    179.99999979	      6.03171624	     62.50842522	     28.02574149	     14.89474960	     15.34433975	     39.24033699	    -37.65832269	    -45.00000000	    -45.00000000	   -997.75674087	  -1536.22058558	    136.03525860	   -179.99999979	   1091.41303131	   -309.55703021	      7.95760978	    -24.01078551
      4.47000000	    -40.24856755	     -0.08583639	     -5.28042757	   -216.03165498	    872.68610174	     -5.62206873	     13.18699756	    -45.00000000	     40.63630661	    -45.00000000	    -45.00000000	   1346.27953166	   -466.71586274	    149.60002969	    179.99999979	      6.35565178	     63.40912167	     28.21001554	     14.57449145	     15.16288599	     39.38779654	    -37.70654812	    -45.00000000	    -45.00000000	   -997.73599190	  -1536.30004572	    136.18024280	   -179.99999979	   1091.43156138	   -310.94433528	      8.24578239	    -24.17086987
      4.48000000	    -40.27547817	      0.16402672	     -5.45789970	   -216.42428410	    874.39197963	     -5.68151652	     13.27525531	    -45.00000000	     40.79668192	    -45.00000000	    -45.00000000	   1346.16260401	   -466.70371178	    149.43959497	    179.99999979	      6.50103976	     63.97730390	     28.49724133	     14.52963100	     15.28084580	     39.08676925	    -37.63262901	    -45.00000000	    -45.00000000	   -997.65158760	  -1536.14103326	    136.07045917	   -179.99999979	   1091.27871991	   -312.01858579	      8.33790163	    -24.09687666
      4.49000000	    -40.27362643	      0.31249142	     -5.54049327	   -216.63181168	    875.96750596	     -5.72823837	     13.30549153	    -45.00000000	     40.81850819	    -45.00000000	    -45.00000000	   1346.11558501	   -466.58777827	    149.53573707	    179.99999979	      6.73150050	     64.26930193	     28.57891246	     14.37618981	     15.19350801	     39.23338596	    -37.67095523	    -45.00000000	    -45.00000000	   -997.59820289	  -1536.17639976	    136.20618032	   -179.99999979	   1091.29786520	   -312.73318261	      8.47763904	    -24.17734409
      4.50000000	    -40.21718457	      0.82627301	     -5.93571594	   -216.66357024	    877.41848241	     -5.76294633	     12.94525559	    -45.00000000	     40.85864512	    -45.00000000	    -45.00000000	   1346.22743980	   -466.46418241	    149.33899403	    179.99999979	      6.98693419	     64.43017647	     28.89818547	     14.39885051	     15.31853880	     39.08818919	    -37.93521369	    -45.00000000	    -45.00000000	   -997.52943668	  -1536.23609592	    136.12024200	   -179.99999979	   1091.21852845	   -313.18344341	      8.53104782	    -24.19759337
      4.51000000	    -40.25800196	      1.13239820	     -6.16401998	   -216.52147203	    878.74202858	     -5.79008968	     13.28813316	    -45.00000000	     40.80269662	    -45.00000000	    -45.00000000	   1346.14742812	   -466.37611716	    148.86891996	    179.99999979	      6.90190666	     64.56266677	     28.97702586	     14.43511240	     15.39059905	     38.97980827	    -37.75542149	    -45.00000000	    -45.00000000	   -997.44369104	  -1535.84035423	    135.80967431	   -179.99999979	   1091.19697468	   -313.45324422	      8.59797893	    -24.22547967
